<svg xmlns="http://www.w3.org/2000/svg" width="189" height="154" fill="none"><path fill="#C6833D" d="M143.578 95.46s11.127 8.056 14.542 13.551 5.989 17.822 3.664 21.368-5.989 2.81-7.577-.974c-1.588-3.785-1.588-9.891-6.238-11.727-4.651-1.835-12.955-2.809-17.356-7.817s12.954-14.412 12.954-14.412z"></path><path fill="#303030" d="M143.568 95.46s-17.356 9.405-12.955 14.413c3 3.411 7.796 4.945 12.031 6.158 1.079-2.022 2.273-2.675 5.283-5.63 2.502-2.467 4.121-5.422 4.982-7.268-4.328-4.043-9.331-7.672-9.331-7.672z"></path><path fill="#C6833D" d="M97.58 111.113s-3.01 11.737-10.619 18.269c-6.414 5.516-4.235 7.776-1.422 12.12s4.495 9.725.914 11.633-9.467-2.685-13.806-8.046-8.438-16.983-7.286-24.52c1.152-7.538 8.698-13.924 8.698-13.924l23.531 4.468z"></path><path fill="#FFCC74" d="M176.005 42.986s4.682 6.947 0 12.193c-4.681 5.246-15.051 13.448-22.929 20.28s-5.698 11.28-7.639 19.14c-1.941 7.859-11.18 16.858-12.892 22.333-1.713 5.464 1.484 24.375 2.626 28.139s.913 7.745-3.54 8.087-9.352-1.255-15.165-11.623-7.068-29.393-7.068-29.393-23.843 1.71-32.51-.115c0 0-5.927 8.202-15.28 14.132-9.352 5.92-11.863 10.825-13.462 17.315s-2.855 8.201-7.526 8.201-10.38-5.806-7.068-16.63c3.311-10.825 9.352-18.456 7.868-24.262-1.485-5.806-12.778-28.709-2.855-41.016 0 0-7.64-7.63-7.753-18.227-.115-10.596-.115-26.2-12.207-31.56S-2.155 9.155.47 3.577s14.148-4.106 23.272.798C32.867 9.28 40.05 19.752 40.849 26.139c.8 6.377 2.138 33.707 15.144 34.277s40.399-.674 45.537-.788 11.636-4.334 14.48-10.482 8.096-20.964 8.667-27.455 3.654-17.543 7.868-17.2 7.868 12.078 7.868 12.078.228-13.561 3.539-13.675 8.097 6.376 7.411 16.63c0 0 8.211-.57 12.892 5.578 4.682 6.149 11.75 17.885 11.75 17.885"></path><path fill="#7C77F7" d="M147.528 83.007a.8.8 0 0 0-.166-.052c-23.635-8.055-31.918-29.414-32.666-31.467-1.505 2.25-3.487 4.137-5.626 5.537 1.152 7.745 7.723 16.661 14.958 23.504 6.435 6.086 16.919 9.819 21.953 11.364.54-3.36.571-6.107 1.526-8.865z"></path><path fill="#FD0" d="M144.479 102.74c3.302 0 5.979-3.407 5.979-7.61s-2.677-7.61-5.979-7.61-5.979 3.407-5.979 7.61 2.677 7.61 5.979 7.61"></path><path fill="#303030" d="M170.185 62.624c2.502-.913 4.411-2.965 5.948-5.09 1.712-2.365 2.512-5.081 2.667-7.974.083-1.534-.01-3.183-.415-4.666-.353-1.327-1.017-2.55-1.536-3.815-.571-1.369-1.194-2.644-2.035-3.867-.716-1.037-1.494-2.406-2.854-2.499-.415-.031-.727.3-.862.653-.394 1.027.364 2.146.81 3.048.519 1.058.851 2.115 1.194 3.246s.975 2.25 1.391 3.4c.446 1.234.56 2.478.56 3.774 0 2.395-.498 4.5-1.598 6.625s-2.678 3.775-4.152 5.6c-.519.642-.063 1.907.903 1.555zM163.792 23.128c-.945-1.255-1.505-2.706-2.855-3.63-1.349-.922-3.113-1.523-4.702-1.896-3.633-.882-7.556-1.183-11.272-1.214-.55 0-1.1 0-1.651-.041-.145 0-.321-.042-.456-.114.405.238-.208-.467-.249-.529-.82-1.41-1.391-2.965-2.045-4.458-1.028-2.364-1.827-4.946-3.363-7.04-1.443-1.97-3.571-3.287-6.031-2.343-2.46.943-3.955 3.504-4.899 5.91-1.121 2.84-1.516 5.712-1.931 8.72-.529 3.898-1.702 7.682-2.533 11.518-.456 2.084-.872 4.168-1.546 6.2-.675 2.032-1.422 3.94-2.107 5.92s-1.495 3.743-2.191 5.65c-.643 1.764-1.463 3.754-1.629 5.63-.094 1.058 1.609 1.546 2.055.56.644-1.42 1.391-2.705 1.9-4.188.539-1.586 1.359-3.038 2.013-4.583 1.36-3.235 2.699-6.594 3.747-9.943s1.858-7.164 2.699-10.73c.789-3.34.945-6.75 1.64-10.089.436-2.094 1.038-4.717 2.471-6.387.425-.487 1.204-1.202 1.899-1.15.872.062 1.599 1.12 2.024 1.773 1.37 2.104 2.138 4.53 2.99 6.863.851 2.333 1.494 5.786 4.266 6.418 1.463.332 3.062.114 4.546.083 1.962-.041 3.913.145 5.865.332 1.951.186 3.757.435 5.574.912s3.155 1.649 4.546 2.8c.623.508 1.785-.177 1.215-.934z"></path><path fill="#303030" d="M150.729 10.338a20.6 20.6 0 0 0-.706-3.878c-.332-1.171-.726-2.343-1.463-3.338-1.225-1.659-3.405-2.976-5.408-1.783-1.412.84-2.066 2.56-2.481 4.054-.374 1.337-.592 2.706-.882 4.064-.187.881-.426 1.752-.571 2.644a7.1 7.1 0 0 0-.042 1.99c.042.332.083.685.218.996.073.166.166.31.301.446.083.083.177.155.28.228-.093-.062-.083-.052.021.03.654.592 1.578.156 1.651-.684-.032.343-.104.27-.032.135.115-.197.156-.404.167-.632.01-.176 0-.342.01-.519.021-.342.114-.725.187-1.14.135-.798.311-1.576.498-2.354.26-1.078.415-2.177.675-3.255.155-.643.342-1.275.571-1.887.031-.073.062-.156.093-.228 0 .02-.104.228-.031.072.062-.145.135-.28.207-.425.063-.114.125-.228.198-.342.041-.073.311-.435.187-.28-.146.176.114-.104.145-.145.249-.28-.125.02.052-.062.041-.021.124-.062.155-.094.115-.093.177.031-.124.042.041 0 .093-.031.124-.042.25-.072.021 0-.093 0 .145.01.467.073.073-.03.124.03.249.04.363.072.374.104.654.29 1.007.539.799.57 1.37 1.379 1.744 2.281.508 1.223.965 2.468 1.463 3.691.28.684 1.505.695 1.422-.197zM176.859 45.602c1.651-.58 3.498-.684 5.221-.953.945-.156 1.921-.27 2.855-.477.467-.104.924-.218 1.391-.332.508-.125 1.007-.145 1.484-.373.571-.28.613-1.307 0-1.566-.913-.394-2.128-.363-3.124-.373-1.08-.01-2.19.186-3.26.342-1.899.29-3.85.425-5.625 1.213-.623.27-.82 1.161-.571 1.721s.965 1.037 1.629.798M177.345 52.562c1.671.518 3.363 1.13 5.065 1.514.862.197 1.723.31 2.585.487.404.083.799.228 1.214.332.467.114.934.155 1.401.228.561.083 1.059-.736.426-1.016-.426-.187-.82-.425-1.246-.612-.373-.166-.768-.31-1.131-.518-.415-.239-.789-.53-1.204-.767-.384-.218-.779-.436-1.173-.654-1.65-.881-3.737-1.451-5.616-1.368-1.359.062-1.65 1.97-.321 2.374M138.602 64.096c3.042-1.887 6.104-3.878 9.373-5.34 1.557-.694 3.011-1.586 4.505-2.384 1.246-.674 2.876-1.13 3.478-2.53.29-.674-.187-1.41-.955-1.244-2.979.632-6.01 2.291-8.387 4.147-2.803 2.178-5.844 4.075-8.719 6.138-.717.518-.073 1.69.705 1.213M138.947 52.378c.809-.57 1.889-.643 2.844-.767 1.266-.166 2.512-.436 3.788-.508 1.371-.083 2.761-.177 4.142-.135 1.38.041 2.854.259 4.1-.488.592-.352.571-1.192 0-1.544-2.771-1.732-6.031-.768-8.979-.177-1.287.26-2.522.736-3.799 1.047-1.09.26-2.179.592-2.999 1.38-.592.58.197 1.669.913 1.171zM119.57 60.597c1.111 2.177 2.284 4.302 3.446 6.448s2.896 4.034 4.702 5.786 3.592 3.204 5.699 4.448 4.245 2.81 6.716 3.245c.685.124 1.36-.715.737-1.275-3.509-3.163-7.702-5.454-11.107-8.73-1.702-1.628-3.384-3.318-4.941-5.08s-2.75-3.806-4.338-5.547c-.467-.509-1.194.134-.914.704M109.176 60.528c-.249 2.499 1.256 4.645 2.46 6.74 1.453 2.54 3.269 4.924 5.013 7.267 1.651 2.219 3.394 4.355 5.574 6.076s4.038 3.712 6.695 4.655c.665.239 1.194-.58.872-1.14-.602-1.058-1.505-1.69-2.439-2.416-1.059-.809-1.962-1.794-2.958-2.675-2.004-1.763-3.758-3.764-5.356-5.9-1.599-2.135-3.218-4.24-4.723-6.428-.696-1.005-1.308-2.073-1.993-3.08-.685-1.005-1.495-2.145-1.837-3.275-.229-.747-1.236-.55-1.308.176M70.728 59.937c-2.688.01-5.46-.135-8.148-.374-1.879-.166-3.758-.508-5.553-1.099-2.294-.757-5.512-2.84-3.073-5.412.903-.954 3.166-1.825 4.08-.456.986 1.462-.104 3.131-1.495 3.784-1.983.923-3.55.54-5.211-.746-.696-.54-1.484-1.016-2.107-1.649-.84-.86-1.215-2.104-1.588-3.224-.851-2.592-1.755-5.153-2.367-7.818s-1.297-5.308-2.159-7.931c-.342-1.037-2.076-.934-2.003.27.228 3.338.737 6.635 1.588 9.88.778 2.976 1.681 6.18 3.03 8.958.675 1.379 1.64 2.27 2.855 3.162 1.11.82 2.149 1.753 3.457 2.25 2.294.871 5.262.228 7.193-1.244 2.107-1.597 2.917-4.469 1.765-6.895s-3.768-3.11-6.218-2.478c-2.626.684-4.692 2.903-5.013 5.62-.26 2.167.882 3.96 2.605 5.184 1.837 1.306 4.214 1.99 6.446 2.156 2.003.145 4.048.177 6.062.125 2.013-.052 3.986-.446 6.02-.85.695-.135.519-1.213-.166-1.213M63.38 126.096c1.568-.819 2.907-1.897 4.38-2.851 1.475-.954 2.907-1.7 4.256-2.727s2.543-2.032 3.664-3.235c.592-.632 1.184-1.306 1.682-2.021.145-.208.28-.426.426-.643a1.2 1.2 0 0 1 .249-.311c-.374.228-.405.363-.083.404.373.394 1.847.394 2.377.456.81.094 1.63.166 2.439.228 1.796.146 3.508-.062 5.294-.228s3.446-.394 5.159-.643c1.826-.259 3.871.021 5.48-.995.498-.311.384-1.026-.156-1.213-1.816-.632-3.757-.332-5.636-.124-1.754.186-3.54.394-5.304.404s-3.685-.187-5.501-.353c-.82-.082-1.65-.145-2.46-.321s-1.578-.632-2.409-.622c-1.64.021-2.2 1.493-3.103 2.582-1.08 1.316-2.356 2.478-3.581 3.67s-2.325 2.468-3.467 3.722c-1.266 1.4-2.865 2.53-4.474 3.515-.84.518-.104 1.762.768 1.317zM144.304 87.01c-5.159.488-7.474 7.155-6.176 11.55.861 2.914 3.477 5.745 6.767 5.112 3.633-.705 5.346-4.49 5.761-7.776.415-3.287.197-7.807-3.353-9.04-1.048-.364-1.733 1.057-1.038 1.782s1.204 1.587 1.308 2.53c.125 1.151 0 2.375-.104 3.525-.103 1.09-.249 2.282-.633 3.246-.425 1.037-1.214 2.063-2.304 2.488.01 0-.363.104-.498.114.259-.031-.613-.073-.322-.021-.467-.093-.727-.249-1.059-.55a5.2 5.2 0 0 1-1.007-1.264c-.093-.156-.166-.322-.249-.477.146.29 0 .02-.021-.062-.041-.135-.093-.26-.134-.394-.125-.415-.218-.84-.302-1.265-.01-.073-.062-.394-.02-.093l-.031-.301a9 9 0 0 1-.042-.757c0-.487.021-.975.052-1.451 0-.125.021-.25.031-.384 0-.02.031-.27 0-.083.031-.249.083-.508.135-.757.426-1.918 1.453-3.67 3.415-4.344.675-.228.623-1.41-.176-1.327M144.65 31.803c-.633.529-.405 1.877-.27 2.602a7.3 7.3 0 0 0 .768 2.126c.789 1.42 2.149 2.56 3.768 2.893 1.515.31 3.353.093 4.442-1.11a3.8 3.8 0 0 0 .904-1.731c.166-.716.093-1.39-.032-2.105-.093-.58-.29-1.14-.487-1.69-.229-.653-.478-1.39-1.07-1.794-.342-.228-.747-.03-.955.25-.311.404-.301 1.015-.311 1.513 0 .466.031.933.021 1.4 0 .217 0 .445-.011.663 0 .104 0 .208-.02.311 0 .073-.011.135-.021.208-.021.248.073-.394.021-.135-.021.093-.042.186-.052.28v.03c-.073.509-.083.55-.021.125-.01.042-.01.083-.021.125a3 3 0 0 1-.072.3c-.011.052-.031.094-.052.145-.094.29.176-.331.052-.124-.042.073-.083.156-.135.228-.146.249.27-.29.041-.052l-.104.104c-.124.124-.135 0 .135-.104-.093.031-.218.135-.301.187.353-.114-.259.155 0 0-.124.041-.249.072-.373.104-.073.01-.146.02-.208.041-.197.052.405-.031.083-.01-.166 0-.322.03-.488.03h-.477c-.322-.01.249.063.052.011-.073-.02-.156-.031-.229-.041a4 4 0 0 1-.446-.125 1 1 0 0 1-.177-.062c.187.083.208.093.073.031l-.083-.041c-.27-.135-.529-.3-.778-.467-.083-.062-.156-.041.041.031-.062-.02-.124-.104-.176-.145a6 6 0 0 1-.364-.352c-.052-.052-.103-.114-.155-.177-.208-.217.062.104-.073-.093-.093-.124-.176-.26-.259-.394a6 6 0 0 1-.27-.498c-.031-.051-.052-.114-.083-.166.093.208-.021-.051-.042-.093a5.5 5.5 0 0 1-.28-.995c0-.01-.042-.311-.021-.114 0-.093-.021-.187-.021-.28-.031-.332-.114-.58-.353-.84-.311-.332-.799-.27-1.11 0M157.766 30.09c.508 2.85 2.532 5.92 5.615 6.272 1.495.166 3.353-.59 3.82-2.125.384-1.255-.093-2.582-.654-3.691-.28-.57-.623-1.1-.976-1.628-.166-.249-.332-.487-.498-.736a2.6 2.6 0 0 0-.664-.684c-.415-.312-.924.114-.945.539-.031.466.135.83.301 1.265.177.456.353.912.498 1.378.146.467.312.965.416 1.462.02.114.02.498.02.104 0 .114.021.228.032.342v.46699999999999997c0 .238.072-.322.01-.104-.021.093-.052.197-.073.29-.041.187.063-.145.073-.155-.031.031-.062.114-.083.156-.042.072-.094.155-.125.227-.062.135.26-.259.094-.114a.8.8 0 0 0-.125.135c-.145.176.239-.145.104-.072-.052.03-.093.062-.145.093a1 1 0 0 0-.125.073c-.218.134.26-.073.083-.032-.124.032-.239.083-.353.114-.021 0-.259.042-.259.052.01-.041.353-.03.01 0-.145 0-.28.01-.425 0-.032 0-.156-.02-.167-.01.115-.072.291.062.063 0-.125-.031-.249-.052-.364-.093-.083-.021-.155-.052-.238-.083.238.124-.239-.083 0 0a9 9 0 0 1-.717-.425c-.062-.042-.228-.177 0 0-.051-.042-.093-.073-.145-.114-.145-.114-.27-.25-.405-.363-.436-.373-.249-.197-.145-.114-.083-.073-.166-.135-.249-.208a4 4 0 0 1-.343-.373c-.041-.041-.083-.093-.124-.135-.021-.03-.208-.259-.146-.186.084.114-.093-.125-.083-.114-.051-.073-.103-.146-.155-.229a9 9 0 0 1-.509-.829 3.5 3.5 0 0 1-.218-.446c-.021-.052-.041-.093-.062-.145.062.135-.052-.135-.062-.166-.353-.954-1.692-.58-1.516.415zM163.205 44.346c.27-.063.54-.114.809-.197.384-.114.748-.343 1.121-.498l-.404.166a11.6 11.6 0 0 1 2.761-.778c.404-.062.851-.466 1.048-.809.218-.373.311-.933.176-1.358-.311-.943-1.204-1.43-2.169-1.223-.903.197-1.754.508-2.595.87q-.545.234-1.059.53c-.539.31-.903.788-1.245 1.285-.125.176-.187.477-.187.695 0 .3.114.59.291.83.342.445.892.621 1.442.487zM126.031 147.769c-.02.591.021 1.182-.021 1.773 0 .073-.01.146-.02.218-.011.114 0-.041 0-.072a.4.4 0 0 1-.021.114c-.031.145-.062.29-.114.425 0 .031-.031.062-.031.083.062-.156.072-.156 0-.021-.021.041-.031.083-.052.124-.021.052-.052.125-.063.187.032-.176.063-.124.021-.052-.021.031-.031.062-.052.093-.031.063-.176.239-.031.063-.239.3-.311.684-.062.995.208.27.685.425.986.197.374-.29.706-.632.862-1.089.124-.352.155-.746.166-1.119.01-.654-.104-1.296-.125-1.95-.021-.373-.322-.746-.727-.725a.75.75 0 0 0-.726.725zM129.546 148.504c-.031.332-.052.664-.072.985-.011.166-.021.332-.042.498 0 .093-.021.186-.031.28 0 .02-.031.3-.021.155.021-.207-.031.27-.041.332 0 .083-.021.166-.021.238v-.072c0 .041-.01.093-.021.135-.01.082-.031.155-.041.238-.042.218-.032.425-.032.643 0 .207-.041.404.021.601a.693.693 0 0 0 .997.405c.228-.125.373-.353.498-.56.104-.166.239-.374.291-.56.103-.373.135-.809.145-1.203 0-.705-.125-1.41-.187-2.115-.031-.373-.311-.747-.727-.726-.415.021-.695.322-.726.726zM132.586 147.762c.093.757.28 1.493.436 2.23l.093.476c0 .042.01.083.021.135.01.104.01.083 0-.052 0 .042 0 .083.01.135.01.104.031.208.042.322.041.176.083.352.114.528 0 .042.01.094.021.135-.021-.155-.021-.104.02.135.031.135.094.249.146.384.228.528 1.048.445 1.297 0 .228-.405.26-.913.249-1.369 0-.404-.135-.819-.249-1.213-.208-.684-.457-1.358-.612-2.063-.083-.394-.509-.633-.893-.581s-.758.394-.706.798zM39.75 147.345a25 25 0 0 0-.674 1.669c-.093.249-.166.498-.239.747a2.6 2.6 0 0 0-.093.56c-.01.186.03.394.072.58a.75.75 0 0 0 .644.55.77.77 0 0 0 .768-.374c.166-.269.28-.539.353-.85.062-.259.125-.508.197-.757.146-.508.322-1.005.509-1.493.072-.186.02-.477-.083-.642a.9.9 0 0 0-.395-.343c-.342-.145-.882-.041-1.038.343zM42.357 147.4c-.155.591-.197 1.203-.228 1.814-.01.27-.031.54-.052.809 0 .042 0 .083-.01.125.01-.083.01-.104 0-.042-.01.073-.021.145-.042.218a2 2 0 0 0-.062.57c0 .301.218.612.519.684.3.073.632-.051.809-.331.207-.332.238-.726.28-1.11.02-.269.03-.539.041-.809.01-.269 0-.539.021-.819 0-.145.01-.29.041-.435-.03.166 0-.042.01-.062.011-.083.032-.166.053-.249.083-.363-.114-.788-.498-.881-.384-.094-.778.114-.882.497z"></path><path fill="#C6833D" d="M78.388 66.546c2.803-.104 5.595-.435 8.387-.726 2.792-.29 5.533-.228 8.325.083.944.104 1.308-1.379.488-1.783-2.678-1.306-5.792-.995-8.667-.632-2.876.362-5.793 1.213-8.72 1.607-.83.114-.622 1.482.198 1.451zM78.666 69.425c2.553.342 5.076-.166 7.63-.145 1.12 0 2.241.103 3.362.124.592.01 1.163-.042 1.754-.124.592-.083 1.173-.395 1.682-.726.675-.436.394-1.441-.405-1.483-.54-.031-1.048-.124-1.588-.124s-1.121 0-1.681-.021c-1.08-.031-2.16-.135-3.239-.124-2.429.041-4.879.549-7.276.86-.447.062-.82.3-.883.778-.052.394.198.922.644.985M82.001 71.96c1.142.072 2.284.175 3.425.196.571.01 1.142.052 1.713.031s1.204-.176 1.775-.331c.706-.187.706-1.234 0-1.42-.57-.156-1.183-.312-1.775-.333-.591-.02-1.142.021-1.712.032-1.142.02-2.284.124-3.426.197-1.038.072-1.048 1.555 0 1.617zM40.816 84.21c.623-.486 1.267-.922 1.869-1.43.56-.477 1.048-1.016 1.578-1.524 1.058-1.027 2.127-1.918 3.383-2.696 1.256-.777 2.398-1.586 3.675-2.27 1.276-.685 2.688-1.068 3.882-1.856.924-.612.664-1.804-.29-2.188-1.589-.643-3.478.187-4.869.933a29.4 29.4 0 0 0-4.09 2.675c-1.276.995-2.408 2.063-3.404 3.349a34 34 0 0 0-1.36 1.846c-.477.715-.84 1.492-1.37 2.166-.571.726.28 1.576 1.007 1.006zM46.189 85.621c.975-1.037 2.044-1.98 3.145-2.882.155-.125-.146.103.02-.01.073-.052.156-.115.229-.177.156-.114.311-.218.467-.332.3-.197.602-.383.924-.549.145-.083.29-.156.446-.228.083-.042.166-.073.25-.114.145-.062-.198.072.04-.01.333-.115.665-.229 1.008-.312.674-.155 1.13-.964.923-1.627-.207-.664-.913-1.11-1.63-.923-1.619.415-3.051 1.327-4.328 2.374-1.276 1.047-2.231 2.219-3.072 3.556-.613.954.8 2.053 1.578 1.213zM125.939 33.128c-.477 3.069-1.318 6.076-2.418 8.979-.509 1.327-1.1 2.613-1.661 3.919-.529 1.223-1.588 3.12-1.131 4.458.29.86 1.463 1.327 2.148.57.571-.632.654-1.4.924-2.187.239-.705.53-1.38.831-2.063.602-1.348 1.224-2.686 1.681-4.086a46.6 46.6 0 0 0 2.066-9.269c.155-1.368-2.211-1.7-2.429-.331zM130.42 37.487c-.238.88-.498 1.752-.747 2.623-.249.87-.488 1.742-.82 2.56.031-.082-.145.332-.176.405-.073.145-.146.3-.218.446-.198.404-.395.798-.571 1.203-.395.88-.914 1.907-.654 2.892.135.508.602.902 1.121.964.571.073 1.017-.186 1.349-.642.27-.374.374-.902.519-1.348.135-.373.218-.58.353-.871.363-.809.758-1.607 1.059-2.447.633-1.783.768-3.64.861-5.505.063-1.203-1.764-1.41-2.065-.28zM133.222 41.021c-.032.467-.063.923-.125 1.39l.041-.343a8 8 0 0 1-.207 1.016l-.125.498c-.02.093-.052.176-.072.27a2.6 2.6 0 0 0-.115.57c-.031.425.26.83.603 1.037-.177-.311-.353-.622-.54-.934v.104c0 .799.851 1.234 1.536.881.031-.02.062-.03.093-.051l-.83.114h.031c.415.186.862-.052 1.173-.301.177-.135.311-.384.426-.58.103-.177.186-.353.269-.54.167-.394.229-.85.26-1.275.031-.622-.031-1.244-.083-1.856-.021-.311-.114-.59-.343-.819-.197-.197-.529-.352-.82-.342-.674.031-1.11.508-1.162 1.161zM38.589 79.804c.228-.829.768-1.576 1.245-2.29.477-.716.965-1.421 1.526-2.054 1.12-1.244 2.74-2.167 4.11-3.11s2.928-1.721 4.443-2.52c.778-.404 1.495-1.026 2.304-1.327.924-.342 1.796-.891 2.73-1.171.592-.177.509-1.182-.156-1.11-1.006.104-1.982 0-2.989.228s-2.065.228-3.083.591c-1.847.664-3.57 1.804-5.138 2.966-.8.59-1.557 1.202-2.221 1.938-.633.695-1.08 1.525-1.568 2.323-1.027 1.659-2.023 3.287-2.293 5.246-.094.684.871 1.006 1.069.29z"></path></svg>
